<?xml version="1.0" standalone="no"?><!DOCTYPE svg PUBLIC "-//W3C//DTD SVG 1.1//EN" "http://www.w3.org/Graphics/SVG/1.1/DTD/svg11.dtd"><svg t="1649321795240" class="icon" viewBox="0 0 1024 1024" version="1.1" xmlns="http://www.w3.org/2000/svg" p-id="5632" width="128" height="128" xmlns:xlink="http://www.w3.org/1999/xlink"><defs><style type="text/css">@font-face { font-family: feedback-iconfont; src: url("//at.alicdn.com/t/font_1031158_u69w8yhxdu.woff2?t=1630033759944") format("woff2"), url("//at.alicdn.com/t/font_1031158_u69w8yhxdu.woff?t=1630033759944") format("woff"), url("//at.alicdn.com/t/font_1031158_u69w8yhxdu.ttf?t=1630033759944") format("truetype"); }
</style></defs><path d="M512 90.125c233.015625 0 421.875 188.859375 421.875 421.875 0 232.9875-188.859375 421.875-421.875 421.875-232.9875 0-421.875-188.8875-421.875-421.875C90.125 278.95625 279.0125 90.125 512 90.125z m72.140625 152.55c-45.5625 15.075-67.44375 57.515625-54.365625 105.75l4.696875 17.746875c-9.84375 2.1375-19.51875 5.00625-28.940625 8.634375-44.521875 17.15625-79.846875 55.209375-92.19375 99.3375a135.084375 135.084375 0 0 0-4.471875 48.375 121.21875 121.21875 0 0 0 50.56875 88.396875 106.790625 106.790625 0 0 0 90.759375 15.46875 106.3125 106.3125 0 0 0 55.96875-37.40625c21.740625-28.378125 28.209375-65.7 18.28125-105.046875-3.65625-14.34375-8.2125-30.20625-12.65625-45.61875l-4.725-16.678125c18.84375 4.725 36.196875 14.090625 50.484375 27.28125 49.21875 45.95625 58.696875 125.128125 22.05 184.1625-32.175 51.8625-94.865625 85.33125-159.665625 85.33125a198.421875 198.421875 0 0 1-198.225-198.16875c0-25.48125 5.00625-50.709375 14.79375-74.221875a194.821875 194.821875 0 0 1 36.7875-57.65625 196.621875 196.621875 0 0 1 71.55-49.584375A27.871875 27.871875 0 0 0 424.165625 287a263.25 263.25 0 0 0-22.584375 10.378125 254.446875 254.446875 0 0 0-87.890625 75.965625 251.859375 251.859375 0 0 0-47.728125 146.896875c0 140.00625 113.90625 253.9125 253.96875 253.9125 83.671875 0 164.925-43.81875 207.028125-111.684375 51.24375-82.51875 37.996875-189.478125-31.3875-254.30625-28.40625-26.55-65.3625-42.075-104.4-45.50625-2.025-7.875-5.175-19.85625-7.59375-28.85625-1.828125-6.665625-2.728125-14.203125-0.759375-20.925a27.95625 27.95625 0 0 1 33.75-18.84375c3.88125 1.040625 7.565625 2.86875 10.771875 5.315625 3.375 2.53125 6.01875 5.821875 9.1125 8.690625a27.9 27.9 0 0 0 43.81875-33.103125l-0.5625-0.928125a57.403125 57.403125 0 0 0-12.65625-14.45625 88.3125 88.3125 0 0 0-46.9125-20.559375 84.4875 84.4875 0 0 0-36 3.7125z m-35.353125 177.46875c2.953125 10.9125 6.1875 22.275 9.45 33.553125 4.33125 15.1875 8.690625 30.2625 12.15 43.875 4.021875 15.975 5.821875 38.840625-8.49375 57.54375a50.146875 50.146875 0 0 1-26.578125 17.521875 51.384375 51.384375 0 0 1-44.071875-7.509375 64.96875 64.96875 0 0 1-26.83125-47.41875 78.75 78.75 0 0 1 2.5875-28.490625c7.734375-27.5625 30.15-51.440625 58.55625-62.409375 7.621875-2.953125 15.4125-5.146875 23.23125-6.665625z" fill="#2c2c2c" p-id="5633"></path></svg>